<mxfile host="app.diagrams.net" modified="2023-08-27T09:00:28.332Z" agent="Mozilla/5.0 (Windows NT 10.0; Win64; x64) AppleWebKit/537.36 (KHTML, like Gecko) Chrome/116.0.0.0 Safari/537.36" version="21.1.2" etag="rWVCqdjCa1exixKxDrmE" type="github">
  <diagram name="Page-1" id="uWnHEwxqT7eHi8V8CHww">
    <mxGraphModel>
      <root>
        <mxCell id="0" />
        <mxCell id="1" parent="0" />
      </root>
    </mxGraphModel>
  </diagram>
</mxfile>
